<svg width="261" height="261" viewBox="0 0 261 261" fill="none" xmlns="http://www.w3.org/2000/svg">
<path d="M232.453 252.844C237.861 252.844 243.047 250.695 246.871 246.872C250.695 243.048 252.844 237.861 252.844 232.453V118.266C252.844 112.858 250.695 107.671 246.871 103.847C243.047 100.023 237.861 97.875 232.453 97.875H175.359L154.969 77.4844H28.5469C23.1389 77.4844 17.9525 79.6327 14.1285 83.4567C10.3045 87.2807 8.15625 92.4671 8.15625 97.875V232.453C8.15625 237.861 10.3045 243.048 14.1285 246.872C17.9525 250.695 23.1389 252.844 28.5469 252.844H232.453Z" fill="#C8CDED"/>
<path d="M232.453 97.875H175.359L154.969 77.4844H40.7812C35.3733 77.4844 30.1869 79.6327 26.3629 83.4567C22.5389 87.2807 20.3906 92.4671 20.3906 97.875V232.453C20.3906 237.861 22.5389 243.048 26.3629 246.872C30.1869 250.695 35.3733 252.844 40.7812 252.844H232.453C237.861 252.844 243.047 250.695 246.871 246.872C250.695 243.048 252.844 237.861 252.844 232.453V118.266C252.844 112.858 250.695 107.671 246.871 103.847C243.047 100.023 237.861 97.875 232.453 97.875Z" fill="#E3E8F6"/>
<path d="M8.15625 130.5H252.844V220.219H8.15625V130.5Z" fill="#E78438"/>
<path d="M20.3906 130.5H252.844V220.219H20.3906V130.5Z" fill="white"/>
<path d="M130.5 236.531C164.284 236.531 191.672 209.144 191.672 175.359C191.672 141.575 164.284 114.188 130.5 114.188C96.7157 114.188 69.3281 141.575 69.3281 175.359C69.3281 209.144 96.7157 236.531 130.5 236.531Z" fill="#C8CDED"/>
<path d="M220.219 81.5625H195.75C193.587 81.5625 191.512 82.4218 189.983 83.9514C188.453 85.481 187.594 87.5556 187.594 89.7188V97.875H228.375V89.7188C228.375 87.5556 227.516 85.481 225.986 83.9514C224.457 82.4218 222.382 81.5625 220.219 81.5625Z" fill="#E78438"/>
<path d="M220.219 81.5625H203.906C201.743 81.5625 199.668 82.4218 198.139 83.9514C196.609 85.481 195.75 87.5556 195.75 89.7188V97.875H228.375V89.7188C228.375 87.5556 227.516 85.481 225.986 83.9514C224.457 82.4218 222.382 81.5625 220.219 81.5625Z" fill="white"/>
<path d="M32.625 110.109C37.1296 110.109 40.7812 106.458 40.7812 101.953C40.7812 97.4486 37.1296 93.7969 32.625 93.7969C28.1204 93.7969 24.4688 97.4486 24.4688 101.953C24.4688 106.458 28.1204 110.109 32.625 110.109Z" fill="#E78438"/>
<path d="M36.7031 108.98C38.9554 108.98 40.7812 105.834 40.7812 101.953C40.7812 98.0725 38.9554 94.9265 36.7031 94.9265C34.4508 94.9265 32.625 98.0725 32.625 101.953C32.625 105.834 34.4508 108.98 36.7031 108.98Z" fill="white"/>
<path d="M65.25 110.109C69.7546 110.109 73.4062 106.458 73.4062 101.953C73.4062 97.4486 69.7546 93.7969 65.25 93.7969C60.7454 93.7969 57.0938 97.4486 57.0938 101.953C57.0938 106.458 60.7454 110.109 65.25 110.109Z" fill="#E78438"/>
<path d="M69.3281 108.98C71.5804 108.98 73.4062 105.834 73.4062 101.953C73.4062 98.0725 71.5804 94.9265 69.3281 94.9265C67.0758 94.9265 65.25 98.0725 65.25 101.953C65.25 105.834 67.0758 108.98 69.3281 108.98Z" fill="white"/>
<path d="M207.984 40.7812L216.141 8.15625L240.609 16.3125L207.984 40.7812Z" fill="#E78438"/>
<path d="M218.025 33.253L240.609 16.3125L223.669 10.6643L218.025 33.253Z" fill="white"/>
<path d="M220.219 53.0157L252.844 44.8594V69.3282L220.219 53.0157Z" fill="#E78438"/>
<path d="M252.844 69.3282V53.0157L231.095 58.4518L252.844 69.3282Z" fill="white"/>
<path d="M53.0156 40.7812L44.8594 8.15625L20.3906 16.3125L53.0156 40.7812Z" fill="#E78438"/>
<path d="M42.9753 33.253L37.3312 10.6643L20.3906 16.3125L42.9753 33.253Z" fill="white"/>
<path d="M40.7812 53.0157L8.15625 44.8594V69.3282L40.7812 53.0157Z" fill="#E78438"/>
<path d="M8.15625 54.0352V69.3282L28.5469 59.1328L8.15625 54.0352Z" fill="white"/>
<path d="M130.5 212.063C150.771 212.063 167.203 195.63 167.203 175.359C167.203 155.089 150.771 138.656 130.5 138.656C110.229 138.656 93.7969 155.089 93.7969 175.359C93.7969 195.63 110.229 212.063 130.5 212.063Z" fill="#E3E8F6"/>
<path d="M24.4688 146.813H8.15625V203.906H24.4688C26.6319 203.906 28.7065 203.047 30.2361 201.517C31.7657 199.988 32.625 197.913 32.625 195.75V154.969C32.625 152.806 31.7657 150.731 30.2361 149.201C28.7065 147.672 26.6319 146.813 24.4688 146.813Z" fill="#C8CDED"/>
<path d="M236.531 146.813C234.368 146.813 232.293 147.672 230.764 149.201C229.234 150.731 228.375 152.806 228.375 154.969V195.75C228.375 197.913 229.234 199.988 230.764 201.517C232.293 203.047 234.368 203.906 236.531 203.906H252.844V146.813H236.531Z" fill="#C8CDED"/>
<path d="M244.688 146.813C242.524 146.813 240.45 147.672 238.92 149.201C237.391 150.731 236.531 152.806 236.531 154.969V195.75C236.531 197.913 237.391 199.988 238.92 201.517C240.45 203.047 242.524 203.906 244.688 203.906H252.844V146.813H244.688Z" fill="#E3E8F6"/>
<path d="M24.4688 146.813H20.3906V203.906H24.4688C26.6319 203.906 28.7065 203.047 30.2361 201.517C31.7657 199.988 32.625 197.913 32.625 195.75V154.969C32.625 152.806 31.7657 150.731 30.2361 149.201C28.7065 147.672 26.6319 146.813 24.4688 146.813Z" fill="#E3E8F6"/>
<path d="M187.594 163.125H165.07C167.914 171.033 167.914 179.685 165.07 187.594H187.594C190.839 187.594 193.95 186.305 196.245 184.01C198.539 181.716 199.828 178.604 199.828 175.359C199.828 172.115 198.539 169.003 196.245 166.708C193.95 164.414 190.839 163.125 187.594 163.125Z" fill="#E78438"/>
<path d="M232.453 93.7969V89.7188C232.453 86.474 231.164 83.3622 228.87 81.0678C226.575 78.7734 223.464 77.4844 220.219 77.4844H195.75C192.505 77.4844 189.393 78.7734 187.099 81.0678C184.805 83.3622 183.516 86.474 183.516 89.7188V93.7969H177.048L168.047 84.7965C157.379 74.1281 156.119 72.8394 154.227 73.4063H28.5469C22.0593 73.4128 15.8394 75.9928 11.252 80.5802C6.66463 85.1675 4.0846 91.3875 4.07812 97.875V232.453C4.0846 238.941 6.66463 245.161 11.252 249.748C15.8394 254.335 22.0593 256.915 28.5469 256.922H36.7031C37.7847 256.922 38.822 256.492 39.5868 255.727C40.3516 254.963 40.7812 253.925 40.7812 252.844C40.7812 251.762 40.3516 250.725 39.5868 249.96C38.822 249.195 37.7847 248.766 36.7031 248.766H28.5469C24.2205 248.766 20.0714 247.047 17.0122 243.988C13.953 240.929 12.2344 236.779 12.2344 232.453V224.297H87.488C99.3489 234.811 114.65 240.616 130.5 240.616C146.35 240.616 161.651 234.811 173.512 224.297H248.766V232.453C248.766 236.779 247.047 240.929 243.988 243.988C240.929 247.047 236.779 248.766 232.453 248.766H53.0156C51.934 248.766 50.8968 249.195 50.132 249.96C49.3672 250.725 48.9375 251.762 48.9375 252.844C48.9375 253.925 49.3672 254.963 50.132 255.727C50.8968 256.492 51.934 256.922 53.0156 256.922H232.453C238.941 256.915 245.161 254.335 249.748 249.748C254.335 245.161 256.915 238.941 256.922 232.453V118.266C256.915 111.778 254.335 105.558 249.748 100.971C245.161 96.3834 238.941 93.8034 232.453 93.7969ZM191.672 89.7188C191.672 88.6372 192.102 87.5999 192.866 86.8351C193.631 86.0703 194.668 85.6406 195.75 85.6406H220.219C221.3 85.6406 222.338 86.0703 223.102 86.8351C223.867 87.5999 224.297 88.6372 224.297 89.7188V93.7969H191.672V89.7188ZM28.5469 81.5625H153.28L172.476 100.758C173.241 101.523 174.278 101.953 175.359 101.953H232.453C236.779 101.953 240.929 103.672 243.988 106.731C247.047 109.79 248.766 113.939 248.766 118.266V126.422H173.512C161.651 115.908 146.35 110.103 130.5 110.103C114.65 110.103 99.3489 115.908 87.488 126.422H12.2344V97.875C12.2344 93.5487 13.953 89.3995 17.0122 86.3403C20.0714 83.2812 24.2205 81.5625 28.5469 81.5625ZM12.2344 150.891H24.4688C25.5503 150.891 26.5876 151.32 27.3524 152.085C28.1172 152.85 28.5469 153.887 28.5469 154.969V195.75C28.5469 196.832 28.1172 197.869 27.3524 198.634C26.5876 199.398 25.5503 199.828 24.4688 199.828H12.2344V150.891ZM12.2344 207.984H24.4688C27.7135 207.984 30.8254 206.695 33.1198 204.401C35.4142 202.107 36.7031 198.995 36.7031 195.75V154.969C36.7031 151.724 35.4142 148.612 33.1198 146.318C30.8254 144.023 27.7135 142.734 24.4688 142.734H12.2344V134.578H79.6458C70.3301 146.129 65.2496 160.52 65.2496 175.359C65.2496 190.198 70.3301 204.59 79.6458 216.141H12.2344V207.984ZM73.4062 175.359C73.3944 161.637 78.3255 148.369 87.2969 137.985C96.2682 127.601 108.679 120.795 122.258 118.814C135.837 116.833 149.676 119.81 161.24 127.198C172.804 134.586 181.32 145.893 185.228 159.047H167.852C164.104 150.46 157.514 143.425 149.19 139.126C140.865 134.826 131.314 133.524 122.143 135.438C112.971 137.353 104.739 142.366 98.8292 149.637C92.9197 156.907 89.6937 165.99 89.6937 175.359C89.6937 184.729 92.9197 193.812 98.8292 201.082C104.739 208.352 112.971 213.366 122.143 215.28C131.314 217.195 140.865 215.892 149.19 211.593C157.514 207.293 164.104 200.259 167.852 191.672H185.228C181.32 204.826 172.804 216.132 161.24 223.521C149.676 230.909 135.837 233.885 122.258 231.904C108.679 229.924 96.2682 223.118 87.2969 212.734C78.3255 202.35 73.3944 189.082 73.4062 175.359ZM187.594 183.516H170.466C171.564 178.134 171.564 172.585 170.466 167.203H187.594C189.757 167.203 191.831 168.062 193.361 169.592C194.891 171.122 195.75 173.196 195.75 175.359C195.75 177.523 194.891 179.597 193.361 181.127C191.831 182.656 189.757 183.516 187.594 183.516ZM130.5 207.984C124.047 207.984 117.74 206.071 112.375 202.486C107.009 198.901 102.828 193.806 100.358 187.844C97.8891 181.883 97.243 175.323 98.5019 168.995C99.7607 162.666 102.868 156.853 107.431 152.29C111.993 147.727 117.807 144.62 124.135 143.361C130.464 142.102 137.024 142.749 142.985 145.218C148.946 147.687 154.042 151.869 157.627 157.234C161.212 162.599 163.125 168.907 163.125 175.359C163.115 184.009 159.675 192.302 153.559 198.418C147.442 204.534 139.15 207.975 130.5 207.984ZM181.33 216.141C187.414 208.607 191.727 199.803 193.952 190.379C196.901 189.129 199.418 187.038 201.187 184.367C202.956 181.696 203.9 178.563 203.9 175.359C203.9 172.156 202.956 169.023 201.187 166.352C199.418 163.681 196.901 161.59 193.952 160.34C191.727 150.915 187.414 142.111 181.33 134.578H248.766V142.734H236.531C233.286 142.734 230.175 144.023 227.88 146.318C225.586 148.612 224.297 151.724 224.297 154.969V163.125C224.297 164.207 224.727 165.244 225.491 166.009C226.256 166.773 227.293 167.203 228.375 167.203C229.457 167.203 230.494 166.773 231.259 166.009C232.023 165.244 232.453 164.207 232.453 163.125V154.969C232.453 153.887 232.883 152.85 233.648 152.085C234.412 151.32 235.45 150.891 236.531 150.891H248.766V199.828H236.531C235.45 199.828 234.412 199.398 233.648 198.634C232.883 197.869 232.453 196.832 232.453 195.75V179.438C232.453 178.356 232.023 177.319 231.259 176.554C230.494 175.789 229.457 175.359 228.375 175.359C227.293 175.359 226.256 175.789 225.491 176.554C224.727 177.319 224.297 178.356 224.297 179.438V195.75C224.297 198.995 225.586 202.107 227.88 204.401C230.175 206.695 233.286 207.984 236.531 207.984H248.766V216.141H181.33Z" fill="#333240"/>
<path d="M32.625 114.188C35.0447 114.188 37.4101 113.47 39.4221 112.126C41.434 110.781 43.0021 108.871 43.9281 106.635C44.8541 104.4 45.0964 101.94 44.6243 99.5664C44.1522 97.1931 42.987 95.0132 41.276 93.3022C39.565 91.5911 37.385 90.4259 35.0118 89.9539C32.6386 89.4818 30.1786 89.7241 27.9431 90.6501C25.7076 91.5761 23.7968 93.1442 22.4525 95.1561C21.1082 97.168 20.3906 99.5334 20.3906 101.953C20.3906 105.198 21.6796 108.31 23.974 110.604C26.2684 112.899 29.3802 114.188 32.625 114.188ZM32.625 97.875C33.4316 97.875 34.22 98.1142 34.8907 98.5623C35.5613 99.0104 36.084 99.6474 36.3927 100.393C36.7014 101.138 36.7821 101.958 36.6248 102.749C36.4674 103.54 36.079 104.267 35.5087 104.837C34.9383 105.407 34.2117 105.796 33.4206 105.953C32.6295 106.11 31.8096 106.03 31.0644 105.721C30.3192 105.412 29.6823 104.889 29.2342 104.219C28.7861 103.548 28.5469 102.76 28.5469 101.953C28.5469 100.872 28.9765 99.8343 29.7413 99.0695C30.5061 98.3047 31.5434 97.875 32.625 97.875Z" fill="#333240"/>
<path d="M65.25 114.188C68.4948 114.188 71.6066 112.899 73.901 110.604C76.1954 108.31 77.4844 105.198 77.4844 101.953C77.4844 100.872 77.0547 99.8343 76.2899 99.0695C75.5251 98.3047 74.4878 97.875 73.4062 97.875C72.3247 97.875 71.2874 98.3047 70.5226 99.0695C69.7578 99.8343 69.3281 100.872 69.3281 101.953C69.3281 102.76 69.089 103.548 68.6408 104.219C68.1927 104.889 67.5558 105.412 66.8106 105.721C66.0654 106.03 65.2455 106.11 64.4544 105.953C63.6633 105.796 62.9367 105.407 62.3663 104.837C61.796 104.266 61.4076 103.54 61.2502 102.749C61.0929 101.958 61.1736 101.138 61.4823 100.393C61.791 99.6473 62.3137 99.0104 62.9843 98.5623C63.655 98.1142 64.4434 97.875 65.25 97.875C66.3316 97.875 67.3689 97.4454 68.1337 96.6806C68.8985 95.9158 69.3281 94.8785 69.3281 93.7969C69.3281 92.7153 68.8985 91.678 68.1337 90.9132C67.3689 90.1484 66.3316 89.7188 65.25 89.7188C62.0052 89.7188 58.8934 91.0078 56.599 93.3021C54.3046 95.5965 53.0156 98.7084 53.0156 101.953C53.0156 105.198 54.3046 108.31 56.599 110.604C58.8934 112.899 62.0052 114.188 65.25 114.188Z" fill="#333240"/>
<path d="M205.729 44.1783C206.431 44.6442 207.26 44.8814 208.102 44.8573C208.944 44.8332 209.757 44.549 210.431 44.0438L243.056 19.575C243.652 19.1285 244.114 18.5274 244.392 17.837C244.671 17.1465 244.755 16.393 244.636 15.6582C244.516 14.9234 244.198 14.2352 243.716 13.6683C243.233 13.1014 242.604 12.6775 241.898 12.4424L217.429 4.28613C216.896 4.10868 216.333 4.04323 215.773 4.09389C215.214 4.14456 214.671 4.31024 214.178 4.58055C213.686 4.85087 213.255 5.21998 212.912 5.66476C212.569 6.10954 212.321 6.62039 212.185 7.16528L204.029 39.7903C203.824 40.6078 203.878 41.4686 204.182 42.2544C204.487 43.0401 205.027 43.7123 205.729 44.1783ZM219.028 13.4171L231.935 17.7195L214.726 30.6267L219.028 13.4171Z" fill="#333240"/>
<path d="M255.352 41.6459C254.863 41.2644 254.294 40.9993 253.688 40.8707C253.082 40.742 252.454 40.7533 251.853 40.9036L219.228 49.0599C218.42 49.2641 217.694 49.7108 217.148 50.3399C216.602 50.969 216.261 51.7504 216.172 52.5788C216.084 53.4072 216.251 54.243 216.651 54.9737C217.051 55.7043 217.666 56.2948 218.412 56.6656L251.037 72.9781C251.658 73.2851 252.348 73.4287 253.04 73.3954C253.732 73.362 254.404 73.1529 254.993 72.7876C255.582 72.4223 256.068 71.913 256.406 71.3077C256.743 70.7024 256.921 70.0212 256.922 69.3282V44.8594C256.922 44.2397 256.78 43.6282 256.508 43.0713C256.236 42.5145 255.841 42.027 255.352 41.6459ZM248.766 62.7298L231.903 54.2962L248.766 50.0835V62.7298Z" fill="#333240"/>
<path d="M17.9437 19.575L50.5687 44.0438C51.2428 44.5493 52.0569 44.8336 52.8991 44.8576C53.7413 44.8817 54.5703 44.6443 55.2721 44.178C55.9739 43.7118 56.5141 43.0396 56.8184 42.2539C57.1227 41.4683 57.1761 40.6076 56.9714 39.7903L48.8151 7.16529C48.6801 6.62016 48.4331 6.1091 48.0898 5.66466C47.7464 5.22022 47.3143 4.85214 46.8209 4.58384C46.3273 4.31136 45.7824 4.14423 45.2209 4.09298C44.6593 4.04174 44.0933 4.10751 43.5584 4.28614L19.0897 12.4424C18.3842 12.6789 17.7568 13.104 17.2755 13.6715C16.7943 14.239 16.4775 14.9274 16.3594 15.6621C16.2414 16.3968 16.3266 17.1498 16.6059 17.8395C16.8852 18.5292 17.3478 19.1294 17.9437 19.575ZM41.972 13.4171L46.2745 30.6267L29.0648 17.7195L41.972 13.4171Z" fill="#333240"/>
<path d="M6.01116 72.7986C6.60243 73.1643 7.27736 73.3727 7.97184 73.4041C8.66633 73.4355 9.35731 73.2888 9.97917 72.9781L42.6042 56.6656C43.3503 56.2947 43.9649 55.7043 44.3654 54.9736C44.7658 54.243 44.9328 53.4072 44.844 52.5788C44.7552 51.7503 44.4147 50.969 43.8684 50.3399C43.3222 49.7108 42.5963 49.2641 41.7886 49.0599L9.16355 40.9036C8.56114 40.7501 7.93161 40.7363 7.32305 40.8633C6.7145 40.9903 6.14304 41.2547 5.65234 41.6364C5.16165 42.0181 4.76472 42.507 4.49188 43.0656C4.21904 43.6241 4.07751 44.2377 4.07813 44.8594V69.3281C4.07777 70.0234 4.25518 70.7072 4.5935 71.3147C4.93183 71.9221 5.41983 72.4329 6.01116 72.7986ZM12.2344 50.0835L29.0974 54.2962L12.2344 62.7297V50.0835Z" fill="#333240"/>
</svg>
