<svg width="40" height="40" viewBox="0 0 40 40" fill="none" xmlns="http://www.w3.org/2000/svg">
<circle cx="20" cy="20" r="19.5" fill="url(#paint0_radial_68_1847)" stroke="url(#paint1_radial_68_1847)"/>
<path d="M29.1617 18.2676C29.1432 18.1737 29.1046 18.0849 29.0487 18.0072C28.9927 17.9296 28.9207 17.8649 28.8376 17.8176L26.3517 16.4009L26.3417 13.5992C26.3414 13.5027 26.3202 13.4075 26.2795 13.32C26.2388 13.2325 26.1795 13.1549 26.1059 13.0926C25.2042 12.3298 24.1658 11.7453 23.0459 11.3701C22.9577 11.3402 22.8643 11.3292 22.7715 11.3376C22.6788 11.3461 22.5889 11.3739 22.5076 11.4192L20.0001 12.8209L17.4901 11.4167C17.4087 11.3711 17.3187 11.3431 17.2258 11.3345C17.1329 11.3259 17.0393 11.3369 16.9509 11.3667C15.8317 11.7443 14.7944 12.3311 13.8942 13.0959C13.8207 13.1581 13.7616 13.2356 13.7208 13.3229C13.6801 13.4103 13.6588 13.5054 13.6584 13.6017L13.6459 16.4059L11.1601 17.8226C11.0769 17.8699 11.0049 17.9346 10.949 18.0122C10.893 18.0899 10.8545 18.1787 10.8359 18.2726C10.6084 19.4158 10.6084 20.5926 10.8359 21.7359C10.8545 21.8298 10.893 21.9185 10.949 21.9962C11.0049 22.0738 11.0769 22.1385 11.1601 22.1859L13.6459 23.6026L13.6559 26.4051C13.6562 26.5015 13.6775 26.5968 13.7182 26.6843C13.7589 26.7718 13.8181 26.8494 13.8917 26.9117C14.7935 27.6745 15.8319 28.259 16.9517 28.6342C17.0399 28.6641 17.1334 28.6751 17.2261 28.6666C17.3188 28.6582 17.4088 28.6304 17.4901 28.5851L20.0001 27.1792L22.5101 28.5834C22.6094 28.6387 22.7214 28.6674 22.8351 28.6667C22.9079 28.6667 22.9802 28.6549 23.0492 28.6317C24.1682 28.2543 25.2054 27.6681 26.1059 26.9042C26.1794 26.842 26.2386 26.7645 26.2793 26.6772C26.32 26.5898 26.3413 26.4947 26.3417 26.3984L26.3542 23.5942L28.8401 22.1776C28.9232 22.1302 28.9952 22.0655 29.0512 21.9879C29.1071 21.9102 29.1457 21.8214 29.1642 21.7276C29.3905 20.5852 29.3896 19.4095 29.1617 18.2676ZM20.0001 23.3334C19.3408 23.3334 18.6963 23.1379 18.1482 22.7716C17.6 22.4053 17.1728 21.8848 16.9205 21.2757C16.6682 20.6666 16.6022 19.9964 16.7308 19.3498C16.8594 18.7031 17.1769 18.1092 17.6431 17.643C18.1092 17.1769 18.7032 16.8594 19.3498 16.7308C19.9964 16.6022 20.6666 16.6682 21.2757 16.9205C21.8848 17.1727 22.4054 17.6 22.7716 18.1482C23.1379 18.6963 23.3334 19.3408 23.3334 20.0001C23.3334 20.8841 22.9822 21.732 22.3571 22.3571C21.732 22.9822 20.8841 23.3334 20.0001 23.3334Z" fill="white"/>
<defs>
<radialGradient id="paint0_radial_68_1847" cx="0" cy="0" r="1" gradientUnits="userSpaceOnUse" gradientTransform="translate(20 20) rotate(90) scale(20)">
<stop/>
<stop offset="1" stop-color="#2C2349"/>
</radialGradient>
<radialGradient id="paint1_radial_68_1847" cx="0" cy="0" r="1" gradientUnits="userSpaceOnUse" gradientTransform="translate(20 20) rotate(90) scale(20)">
<stop/>
<stop offset="1" stop-color="#BEADF0"/>
</radialGradient>
</defs>
</svg>
